<svg width="109" height="37" viewBox="0 0 109 37" fill="none" xmlns="http://www.w3.org/2000/svg">
<path d="M38.8789 9.94079V1H70.625V9.94078C70.625 10.9532 70.1144 11.8973 69.2671 12.4515L58.9875 19.1745C58.1402 19.7287 57.6295 20.6728 57.6295 21.6852V29.8533C57.6295 30.8658 58.1402 31.8099 58.9875 32.3641L65.1483 36.3934H44.3556L50.5164 32.3641C51.3637 31.8099 51.8744 30.8658 51.8744 29.8533V21.6852C51.8744 20.6728 51.3637 19.7287 50.5164 19.1745L40.2369 12.4515C39.3896 11.8973 38.8789 10.9532 38.8789 9.94079Z" stroke="white" stroke-linecap="round" stroke-linejoin="round"/>
<path d="M108.229 21.7286C108.424 21.5333 108.424 21.2167 108.229 21.0214L105.047 17.8395C104.851 17.6442 104.535 17.6442 104.339 17.8395C104.144 18.0347 104.144 18.3513 104.339 18.5466L107.168 21.375L104.339 24.2034C104.144 24.3987 104.144 24.7153 104.339 24.9105C104.535 25.1058 104.851 25.1058 105.047 24.9105L108.229 21.7286ZM75.25 21.875H107.875V20.875H75.25V21.875Z" fill="white"/>
<path d="M33.2286 21.7286C33.4238 21.5333 33.4238 21.2167 33.2286 21.0214L30.0466 17.8395C29.8513 17.6442 29.5347 17.6442 29.3395 17.8395C29.1442 18.0347 29.1442 18.3513 29.3395 18.5466L32.1679 21.375L29.3395 24.2034C29.1442 24.3987 29.1442 24.7153 29.3395 24.9105C29.5347 25.1058 29.8513 25.1058 30.0466 24.9105L33.2286 21.7286ZM0.25 21.875H32.875V20.875H0.25V21.875Z" fill="white"/>
</svg>
